<svg width="850" height="248" xmlns="http://www.w3.org/2000/svg" xmlns:xlink="http://www.w3.org/1999/xlink" overflow="hidden"><g transform="translate(-171 -324)"><text fill="#3D949F" font-family="Calibri,Calibri_MSFontService,sans-serif" font-weight="400" font-size="117" transform="translate(345.6 470)">SIMPLE CRM</text><g><g><g><path d="M243.473 360C295.884 360 316 380.116 316 432.473 316 484.884 295.884 505 243.473 505 191.116 505 171 484.884 171 432.473 171 380.116 191.116 360 243.473 360Z" fill="#EBEBEB" fill-rule="evenodd"/><path d="M277.072 439.214 268.537 439.214 268.482 439.214 218.463 439.214 214.603 439.214 209.928 439.214C203.458 439.214 198.184 433.941 198.184 427.471 198.184 421.49 202.642 416.543 208.46 415.836 208.025 414.586 207.807 413.281 207.807 411.976 207.807 405.669 212.809 400.504 219.061 400.287 219.061 392.458 225.423 386.097 233.252 386.097 239.123 386.097 244.343 389.685 246.463 395.013 248.312 393.871 250.486 393.273 252.661 393.273 257.717 393.273 262.175 396.481 263.807 401.157 265.22 400.559 266.742 400.232 268.319 400.232 274.789 400.232 280.063 405.506 280.063 411.976 280.063 413.335 279.791 414.694 279.356 415.945 284.793 417.032 288.816 421.762 288.816 427.471 288.816 433.941 283.542 439.214 277.072 439.214Z" fill="#6CBFF8" fill-rule="evenodd"/><path d="M248.475 478.903 238.471 478.903C237.819 478.903 237.275 478.414 237.166 477.762L235.372 466.616C232.871 465.692 230.588 464.333 228.522 462.647L217.974 466.67C217.322 466.888 216.615 466.67 216.289 466.072L211.287 457.428C210.961 456.83 211.124 456.123 211.613 455.688L220.366 448.566C220.149 447.261 220.04 445.902 220.04 444.597 220.04 443.292 220.149 441.933 220.366 440.628L211.613 433.506C211.124 433.071 210.961 432.364 211.287 431.766L216.289 423.121C216.615 422.523 217.322 422.306 217.974 422.523L228.522 426.547C230.588 424.861 232.871 423.502 235.372 422.578L237.166 411.432C237.275 410.78 237.819 410.291 238.471 410.291L248.475 410.291C249.181 410.291 249.725 410.78 249.834 411.432L251.628 422.578C254.129 423.502 256.412 424.861 258.478 426.547L269.026 422.523C269.624 422.306 270.331 422.523 270.657 423.121L275.659 431.766C276.039 432.364 275.876 433.071 275.387 433.506L266.634 440.682C266.851 441.933 266.96 443.292 266.96 444.597 266.96 445.902 266.851 447.261 266.634 448.566L275.387 455.688C275.876 456.123 276.039 456.83 275.659 457.428L270.657 466.072C270.331 466.67 269.624 466.888 269.026 466.67L258.478 462.647C256.412 464.333 254.129 465.692 251.628 466.616L249.834 477.762C249.725 478.414 249.181 478.903 248.475 478.903Z" fill="#3B566A" fill-rule="evenodd"/><path d="M243.473 464.659C232.436 464.659 223.411 455.634 223.411 444.597 223.411 433.56 232.436 424.535 243.473 424.535 254.564 424.535 263.535 433.56 263.535 444.597 263.535 455.634 254.564 464.659 243.473 464.659Z" fill="#2B3E4D" fill-rule="evenodd"/><path d="M243.473 460.092C234.937 460.092 227.978 453.133 227.978 444.597 227.978 436.061 234.937 429.102 243.473 429.102 252.063 429.102 258.968 436.061 258.968 444.597 258.968 453.133 252.063 460.092 243.473 460.092Z" fill="#FFFFFF" fill-rule="evenodd"/><path d="M246.409 449.273C246.082 449.273 245.756 449.164 245.539 448.892L243.364 446.065 241.679 446.065 241.679 448.185C241.679 448.783 241.189 449.273 240.591 449.273 239.993 449.273 239.504 448.783 239.504 448.185L239.504 441.009C239.504 440.411 239.993 439.921 240.591 439.921L244.343 439.921C246.028 439.921 247.442 441.28 247.442 443.02 247.442 444.162 246.789 445.195 245.811 445.684L247.279 447.533C247.605 448.022 247.55 448.675 247.061 449.055 246.898 449.218 246.626 449.273 246.409 449.273ZM243.908 443.89 244.343 443.89C244.832 443.89 245.267 443.51 245.267 443.02 245.267 442.477 244.832 442.096 244.343 442.096L241.679 442.096 241.679 443.89 243.853 443.89C243.908 443.89 243.908 443.89 243.908 443.89Z" fill="#5C9CEE" fill-rule="evenodd"/><path d="M234.611 449.273C231.892 449.273 230.479 446.935 230.479 444.597 230.479 443.401 230.805 442.313 231.457 441.444 232.219 440.465 233.36 439.921 234.611 439.921 236.187 439.921 237.547 440.791 238.308 442.15 238.58 442.64 238.362 443.346 237.819 443.618 237.275 443.89 236.622 443.673 236.351 443.129 236.024 442.477 235.372 442.096 234.611 442.096 234.013 442.096 233.523 442.313 233.197 442.803 232.817 443.238 232.599 443.89 232.599 444.597 232.599 445.521 233.034 447.098 234.611 447.098 235.372 447.098 236.024 446.717 236.351 446.065 236.622 445.521 237.275 445.304 237.819 445.576 238.362 445.902 238.58 446.554 238.308 447.043 237.547 448.457 236.187 449.273 234.611 449.273Z" fill="#5C9CEE" fill-rule="evenodd"/><path d="M255.434 449.273C254.836 449.273 254.346 448.783 254.346 448.185L254.346 446.609 253.531 448.62C253.368 449.001 252.987 449.273 252.552 449.273 252.117 449.273 251.682 449.001 251.519 448.62L250.704 446.609 250.704 448.185C250.704 448.783 250.214 449.273 249.616 449.273 249.018 449.273 248.529 448.783 248.529 448.185L248.529 441.009C248.529 440.465 248.91 440.03 249.399 439.921 249.943 439.813 250.432 440.084 250.649 440.574L252.552 445.304 254.455 440.574C254.618 440.084 255.162 439.813 255.651 439.921 256.141 440.03 256.521 440.465 256.521 441.009L256.521 448.185C256.521 448.783 256.032 449.273 255.434 449.273Z" fill="#5C9CEE" fill-rule="evenodd"/></g></g></g></g></svg>